<svg xmlns="http://www.w3.org/2000/svg" width="655.427" height="646.622" viewBox="0 0 655.427 646.622">
    <defs>
        <style>
            .cls-1{fill:#fcce00}.cls-2{fill:#b70202}.cls-3{fill:#003e7c}.cls-5,.cls-6{fill:none;stroke-miterlimit:10;stroke:#fcce00}.cls-5{stroke-width:.745px}.cls-6{stroke-width:3.705px}
        </style>
    </defs>
    <g id="Group_58" data-name="Group 58" transform="translate(-721.575 -124.459)">
        <path id="Rectangle_46" d="M0 0H107.969V227.108H0z" class="cls-1" data-name="Rectangle 46" transform="translate(1156.596 276.727)"/>
        <path id="Rectangle_47" d="M49.094 0h12.015A49.094 49.094 0 0 1 110.2 49.094v132.223a68.129 68.129 0 0 1-68.129 68.129H0V49.094A49.094 49.094 0 0 1 49.094 0z" class="cls-2" data-name="Rectangle 47" transform="translate(1153.618 520.216)"/>
        <path id="Path_120" d="M938.228 540.5H829.175v2.022q-.021-.7-.021-1.4a54.539 54.539 0 0 1 109.074-.617z" class="cls-1" data-name="Path 120"/>
        <path id="Path_121" d="M938.235 541.119a54.539 54.539 0 0 1-109.06 1.4V540.5h109.053c.007.207.007.413.007.619z" class="cls-2" data-name="Path 121"/>
        <path id="Path_122" d="M938.548 540.5v227.934H829.175v-225.91a54.539 54.539 0 0 0 109.06-1.4c0-.206 0-.412-.007-.617z" class="cls-3" data-name="Path 122"/>
        <path id="Path_123" fill="#f7f7f7" d="M1267.544 658.744v110.918h-113.926a111.319 111.319 0 0 1 111.32-110.948c.871 0 1.742.008 2.606.03z" data-name="Path 123"/>
        <g id="Group_41" data-name="Group 41">
            <circle id="Ellipse_55" cx="6.858" cy="6.858" r="6.858" class="cls-2" data-name="Ellipse 55" transform="translate(1243.065 124.459)"/>
            <circle id="Ellipse_56" cx="6.858" cy="6.858" r="6.858" class="cls-2" data-name="Ellipse 56" transform="translate(1265.926 124.459)"/>
            <circle id="Ellipse_57" cx="6.858" cy="6.858" r="6.858" class="cls-2" data-name="Ellipse 57" transform="translate(1265.926 146.666)"/>
            <circle id="Ellipse_58" cx="6.858" cy="6.858" r="6.858" class="cls-2" data-name="Ellipse 58" transform="translate(1243.065 146.34)"/>
        </g>
        <path id="Rectangle_48" d="M0 0H110.203V209.237H0z" class="cls-3" data-name="Rectangle 48" transform="translate(1043.415 560.425)"/>
        <path id="Rectangle_49" d="M0 0H104.867V209.237H0z" class="cls-1" data-name="Rectangle 49" transform="translate(938.547 560.425)"/>
        <path id="Path_124" d="M1376.258 769.662h-110.2V658.744c60.971 1.385 109.996 50.477 110.2 110.918z" class="cls-3" data-name="Path 124"/>
        <path id="Rectangle_50" d="M0 0h110.15v42.063a65.777 65.777 0 0 1-65.776 65.777H0V0z" class="cls-3" data-name="Rectangle 50" transform="rotate(-90 853.04 -83.379)"/>
        <path id="Path_125" d="M1374.768 510.536v259.126c-.2-60.441-50.053-109.533-110.2-110.918V510.536a55.1 55.1 0 1 1 110.2 0z" class="cls-2" data-name="Path 125"/>
        <path id="Path_126" d="M1153.245 392.142c.373 0 .745 0 1.117.007v112.43h-112.436c.201-62.135 49.963-112.437 111.319-112.437z" class="cls-2" data-name="Path 126"/>
        <path id="Path_127" d="M1265.31 503.462c0 .372 0 .744-.007 1.117h-110.941V392.142a111.319 111.319 0 0 1 110.948 111.32z" class="cls-3" data-name="Path 127"/>
        <circle id="Ellipse_59" cx="55.102" cy="55.102" r="55.102" class="cls-1" data-name="Ellipse 59" transform="translate(1043.415 505.323)"/>
        <path id="Path_129" d="M938.191 769.862H828.07V662.149c60.871.19 110.151 47.239 110.151 105.249 0 .824-.008 1.648-.03 2.464z" class="cls-2" data-name="Path 129"/>
        <path id="Rectangle_51" d="M55.1 0a55.1 55.1 0 0 1 55.1 55.1v259.128H0V55.1A55.1 55.1 0 0 1 55.1 0z" class="cls-2" data-name="Rectangle 51" transform="translate(1264.565 192.585)"/>
        <circle id="Ellipse_60" cx="55.102" cy="55.102" r="55.102" class="cls-3" data-name="Ellipse 60" transform="translate(1264.565 193.33)"/>
        <path id="Rectangle_52" d="M0 0H104.867V265.828H0z" class="cls-2" data-name="Rectangle 52" transform="translate(938.547 346.72)"/>
        <path id="Path_131" d="M829.289 661.851v109.23H721.575c.19-60.379 47.239-109.259 105.249-109.259.824 0 1.648.007 2.465.029z" class="cls-1" data-name="Path 131"/>
        <path id="Path_132" d="M1266.427 436.819a110.574 110.574 0 0 0-5.167 221.027v.124H1377V542.227h-.124a110.574 110.574 0 0 0-110.449-105.408z" class="cls-1" data-name="Path 132"/>
        <path id="Path_133" d="M938.548 605.474c0 29.815 23.475 53.985 52.433 53.985 28.137 0 51.1-22.819 52.375-51.462h.059V551.49h-54.884v.06c-27.821 1.318-49.983 24.955-49.983 53.924z" class="cls-2" data-name="Path 133"/>
        <path id="Path_134" d="M936.19 347.837a53.984 53.984 0 0 0 107.91 2.523h.06v-56.507h-56.508v.06a53.985 53.985 0 0 0-51.462 53.924z" class="cls-1" data-name="Path 134"/>
        <circle id="Ellipse_61" cx="110.678" cy="110.678" r="110.678" class="cls-2" data-name="Ellipse 61" transform="translate(1043.55 170.156)"/>
        <g id="Group_42" data-name="Group 42">
            <path id="Path_135" d="M900.2 289.5a3.3 3.3 0 0 0 3.3-3.3v-5.61a3.3 3.3 0 1 0-6.6 0v5.61a3.3 3.3 0 0 0 3.3 3.3z" class="cls-2" data-name="Path 135"/>
            <path id="Path_136" d="M900.2 310.947a3.3 3.3 0 0 0 3.3-3.3v-5.61a3.3 3.3 0 1 0-6.6 0v5.61a3.3 3.3 0 0 0 3.3 3.3z" class="cls-2" data-name="Path 136"/>
            <path id="Path_137" d="M908.116 297.417h5.61a3.3 3.3 0 0 0 0-6.6h-5.61a3.3 3.3 0 1 0 0 6.6z" class="cls-2" data-name="Path 137"/>
            <path id="Path_138" d="M886.667 297.417h5.609a3.3 3.3 0 0 0 0-6.6h-5.609a3.3 3.3 0 0 0 0 6.6z" class="cls-2" data-name="Path 138"/>
        </g>
        <g id="Group_45" data-name="Group 45">
            <g id="Group_44" data-name="Group 44">
                <g id="Group_43" data-name="Group 43">
                    <path id="Path_139" d="M1210.711 548.984a4.642 4.642 0 0 0 1 6.874l4.965 3.266-1.434 2.381a8.921 8.921 0 0 0 1.674 11.229 8.632 8.632 0 0 0 2.492 11.047v6.619a12.34 12.34 0 0 0 12.327 12.327h13.913a26.87 26.87 0 0 1 14.56 4.273l12.664 8.145a2.37 2.37 0 0 0 2.565-3.987l-12.664-8.145a31.6 31.6 0 0 0-17.128-5.033h-13.913a7.594 7.594 0 0 1-7.586-7.585v-7.942a2.37 2.37 0 0 0-1.277-2.1l-.146-.076a3.89 3.89 0 0 1-.8-6.361 2.371 2.371 0 0 0-.661-3.959 4.174 4.174 0 0 1-1.966-6.006l2.608-4.333a2.37 2.37 0 0 0-.728-3.2l-6.777-4.459 17.48-20.716a2.372 2.372 0 0 0 .3-2.6 31.876 31.876 0 0 1-1.263-25.552 64.384 64.384 0 0 0 30.008 35.508 64.06 64.06 0 0 0 9.894 21.307 2.371 2.371 0 1 0 3.863-2.749 59.308 59.308 0 0 1-8-15.778 64.337 64.337 0 0 0 10.119 3.321 59.344 59.344 0 0 1 42.722 39.209 64.4 64.4 0 0 0-10.114-3.327 59.367 59.367 0 0 1-20.162-9.034 2.371 2.371 0 0 0-2.707 3.893 64.1 64.1 0 0 0 21.761 9.759 59.455 59.455 0 0 1 19.011 8.253 2.371 2.371 0 0 0 2.616-3.954q-2.274-1.5-4.656-2.8a64.388 64.388 0 0 0-47.37-46.6 59.378 59.378 0 0 1-44.054-43.855 2.369 2.369 0 0 0-4.376-.945 36.828 36.828 0 0 0-2.2 34.062l-16.562 19.629z" class="cls-3" data-name="Path 139"/>
                    <path id="Path_140" d="M1329.781 539.458a2.37 2.37 0 0 0 .9-3.229 38.575 38.575 0 0 1-3.9-9.949 43.349 43.349 0 0 0-32.061-32.06 2.371 2.371 0 0 0-1.1 4.611 38.429 38.429 0 0 1 28.554 28.554 43.331 43.331 0 0 0 4.381 11.17 2.37 2.37 0 0 0 3.229.9z" class="cls-3" data-name="Path 140"/>
                    <path id="Path_141" d="M1277.99 564.977a2.376 2.376 0 1 0 1.676-.692 2.394 2.394 0 0 0-1.676.692z" class="cls-3" data-name="Path 141"/>
                </g>
            </g>
        </g>
        <g id="Group_46" data-name="Group 46">
            <path id="Path_142" d="M1125.855 232.05a4.551 4.551 0 0 1 3.675 3.458 3.492 3.492 0 0 1-1.487 4.006c-1.469.959-3.017 1.8-4.522 2.7a31.113 31.113 0 0 0-10.181 10.2c-.107.168-.2.348-.289.527-.019.037 0 .093 0 .282.342-.281.63-.489.884-.733a46.884 46.884 0 0 1 9.333-7.216 54.46 54.46 0 0 1 18.07-6.377c2.9-.467 5.115 1.278 5.2 4a3.508 3.508 0 0 1-2.507 3.771c-1.976.644-4 1.144-6.016 1.658a47.69 47.69 0 0 0-11.177 4.8c.143-.024.289-.038.429-.074.169-.045.335-.106.5-.164a30.934 30.934 0 0 1 19.535-.321 12.97 12.97 0 0 1 3.841 1.984 3.728 3.728 0 0 1 .881 4.895 3.947 3.947 0 0 1-4.5 2.045 15.472 15.472 0 0 1-2.227-.687 19.376 19.376 0 0 0-8.961-1.1q-1.315.084-2.627.214a5.461 5.461 0 0 0-.821.21v.218l2.912.49c4.157.692 8.041 2.036 11.189 4.964a16.888 16.888 0 0 1 5.569 10.8 4.111 4.111 0 0 1-3.509 4.659 4.2 4.2 0 0 1-4.769-3.325c-1.427-5.533-4.669-8.3-10.379-8.782a15.688 15.688 0 0 0-8.739 1.329 13.29 13.29 0 0 0-6.973 13.373 12.8 12.8 0 0 0 10.063 10.962 16.989 16.989 0 0 0 9.083-.457c4.056-1.416 6.622-4.235 7.062-8.687a3.933 3.933 0 0 1 3-3.281c.2-.038.395-.077.594-.1 2.626-.338 4.217.872 4.58 3.473a11.707 11.707 0 0 1-1 6.1 16.732 16.732 0 0 1-7.452 8.681c-4.2 2.333-8.431 4.651-13.24 5.393-3.264.5-6.59.62-9.892.87-1.452.109-2.911.122-4.367.174a11.2 11.2 0 0 0-5.7 2.154 35.179 35.179 0 0 0-7.718 6.913c-.356.422-.719.84-1.1 1.238a2.321 2.321 0 0 1-3.1.674 21.984 21.984 0 0 1-10.141-7.995 38.958 38.958 0 0 1-6.419-14.727c-.08-.364-.2-.72-.3-1.08v-.3a52.131 52.131 0 0 0 8.426-6.416 19.982 19.982 0 0 0 4.889-6.611 111.971 111.971 0 0 0 5.674-17.894 75.509 75.509 0 0 1 3.076-11.071 32.871 32.871 0 0 1 9.8-13.05c3.473-2.961 7.035-5.85 11.709-6.769z" class="cls-6" data-name="Path 142"/>
            <path id="Path_143" d="M1186.159 333.36a12.471 12.471 0 0 1-2.308-1.013 3.944 3.944 0 0 1-.259-6.35 17.016 17.016 0 0 1 2.671-1.675A32.08 32.08 0 0 0 1198 313.739c.265-.407.475-.849.711-1.275l-.158-.128c-.371.314-.762.607-1.111.945-7.358 7.131-16.266 11.163-26.216 13.108-1.7.332-3.308.38-4.72-.959-2.014-1.912-1.418-6.2 1.5-6.895a68.229 68.229 0 0 0 7.258-1.958c2.967-1.06 5.833-2.407 8.739-3.638a1.422 1.422 0 0 0 .691-.6c-.543.162-1.088.319-1.63.486a29.152 29.152 0 0 1-20.332-.7c-.439-.182-.858-.414-1.281-.631-1.69-.867-2.273-2.261-2.027-4.379a3.706 3.706 0 0 1 3.272-3.35 5.01 5.01 0 0 1 1.7.1 5.6 5.6 0 0 1 1.358.439c4.049 1.848 8.3 1.365 12.532 1.1a3.165 3.165 0 0 0 .653-.161c.038-.011.06-.073.188-.24-.671-.1-1.266-.219-1.865-.286a21.489 21.489 0 0 1-13.317-6.01 17.87 17.87 0 0 1-4.844-10.156c-.287-1.759 1.168-3.671 3.11-4.3a3.7 3.7 0 0 1 4.585 1.739 10.769 10.769 0 0 1 .957 2.444c.945 3.827 3.474 6.07 7.124 7.15a15.415 15.415 0 0 0 11.867-.782 13.05 13.05 0 0 0-3.142-24.278 14.989 14.989 0 0 0-12.125 2.012 8.619 8.619 0 0 0-3.917 6.481 4.755 4.755 0 0 1-2.421 3.7c-1.831 1.105-4.01.441-5.43-1.53-.911-1.264-.7-2.6-.488-3.974.9-5.783 4.137-9.859 9.107-12.768a36.29 36.29 0 0 1 17.583-5.126q5.875-.163 11.749-.4a2.99 2.99 0 0 0 1.132-.313c4.3-2.064 7.392-5.461 10.13-9.241.324-.448.629-.91.973-1.342a1.9 1.9 0 0 1 2.692-.708 23.2 23.2 0 0 1 10.286 7.716c2.87 3.8 6.7 14.505 7 15.455 0 .252-5.594 4.586-7.457 5.945a17.913 17.913 0 0 0-6.55 8.334 130.732 130.732 0 0 0-4.987 16.4c-.7 3.055-1.167 6.177-2.079 9.165a34.833 34.833 0 0 1-11.579 16.728c-3.267 2.71-6.677 5.243-10.918 6.3z" class="cls-6" data-name="Path 143"/>
        </g>
        <g id="Group_48" data-name="Group 48">
            <g id="Group_47" data-name="Group 47">
                <path id="Path_144" d="M967.52 366.028a1.286 1.286 0 0 0 1.247.978 1.261 1.261 0 0 0 .308-.038l6.211-1.53a1.286 1.286 0 0 0 .977-1.231c.163-12.593.231-12.756 3.8-21.282l3.442-7.715a1.284 1.284 0 1 0-2.343-1.053l-3.47 7.777c-3.585 8.576-3.814 9.125-3.981 21.246l-5.247 1.293a1.286 1.286 0 0 0-.944 1.555z" class="cls-3" data-name="Path 144"/>
                <path id="Path_145" d="M1014.75 376.175a42.432 42.432 0 0 1-9.237-1.927 1.285 1.285 0 1 0-.814 2.437 45.118 45.118 0 0 0 9.8 2.048c.042 0 .084.006.125.006a1.285 1.285 0 0 0 .122-2.564z" class="cls-3" data-name="Path 145"/>
                <path id="Path_146" d="M1008.109 365.438l6.21 1.53a1.284 1.284 0 1 0 .615-2.494l-5.246-1.293c-.167-12.122-.4-12.671-3.982-21.247l-7.681-17.15a10.85 10.85 0 0 1-7.491-2.024 3.934 3.934 0 0 0-5.165 2.024 1.285 1.285 0 0 0 2.344 1.052 1.381 1.381 0 0 1 1.846-.7 1.165 1.165 0 0 1 .611 1.688l-3.62 9.729a4.056 4.056 0 0 0-3.123 3.1c-.606 2.372-1.152 4.656-1.681 6.866-.268 1.118-.535 2.236-.811 3.37a1.284 1.284 0 0 0 2.5.607c.277-1.136.545-2.258.813-3.379.527-2.2 1.072-4.476 1.672-6.829.169-.662.656-1.29 1.364-1.213l.038.005a1.212 1.212 0 0 1 1.032 1.349c-.083.663-.223 1.955-.359 3.2s-.274 2.523-.354 3.165c-.44 3.528-.309 3.951.844 6.2.219.428.467.913.768 1.539 1.334 2.726 1.11 6.464-.707 11.762-1.937 5.651-11.672 9.08-19.9 9.873a1.285 1.285 0 0 0 .122 2.564c.041 0 .083 0 .125-.006 9.321-.9 19.763-4.835 22.082-11.6q.412-1.206.724-2.323.312 1.119.724 2.323a10.96 10.96 0 0 0 2.811 4.25 1.285 1.285 0 0 0 1.793-1.841 8.416 8.416 0 0 1-2.173-3.242c-1.817-5.3-2.041-9.036-.7-11.77.3-.618.545-1.1.764-1.531 1.154-2.252 1.284-2.676.844-6.2-.08-.643-.22-1.928-.355-3.17s-.275-2.538-.358-3.2a1.219 1.219 0 0 1 1.033-1.349l.037-.005c.709-.077 1.2.551 1.364 1.213.6 2.35 1.144 4.623 1.67 6.82.269 1.125.538 2.249.815 3.388a1.285 1.285 0 0 0 2.5-.608c-.277-1.136-.545-2.257-.814-3.378-.528-2.206-1.074-4.488-1.679-6.857a4.057 4.057 0 0 0-3.123-3.1l-3.619-9.728a1.164 1.164 0 0 1 .611-1.688 1.38 1.38 0 0 1 1.845.7l7.655 17.089c3.564 8.526 3.632 8.689 3.8 21.282a1.284 1.284 0 0 0 .965 1.237zm-13.823-28.393a3.785 3.785 0 0 0-1.791 3.7c.08.641.219 1.921.353 3.159.136 1.253.277 2.548.36 3.211.359 2.879.359 2.879-.581 4.716-.215.419-.482.941-.789 1.579-.049.1-.1.2-.141.3-.044-.1-.089-.2-.137-.293-.31-.646-.578-1.168-.792-1.587-.941-1.837-.941-1.837-.582-4.716.083-.662.223-1.955.359-3.2s.274-2.523.354-3.165a3.786 3.786 0 0 0-1.79-3.7l2.588-6.957z" class="cls-3" data-name="Path 146"/>
                <path id="Path_147" d="M991.7 319.733a1.285 1.285 0 0 0 1.285-1.284v-4.2a1.285 1.285 0 0 0-2.57 0v4.2a1.285 1.285 0 0 0 1.285 1.284z" class="cls-3" data-name="Path 147"/>
                <path id="Path_148" d="M979.007 322.193a1.284 1.284 0 0 0 2.225-1.284l-2.1-3.634a1.284 1.284 0 1 0-2.224 1.285z" class="cls-3" data-name="Path 148"/>
                <path id="Path_149" d="M967.369 329.041l3.633 2.1a1.285 1.285 0 0 0 1.285-2.225l-3.633-2.1a1.285 1.285 0 1 0-1.285 2.225z" class="cls-3" data-name="Path 149"/>
                <path id="Path_150" d="M969.827 341.6a1.284 1.284 0 0 0-1.284-1.284h-4.2a1.285 1.285 0 1 0 0 2.569h4.2a1.284 1.284 0 0 0 1.284-1.285z" class="cls-3" data-name="Path 150"/>
                <path id="Path_151" d="M1002.632 322.663a1.283 1.283 0 0 0 1.755-.47l2.1-3.633a1.285 1.285 0 0 0-2.225-1.285l-2.1 3.634a1.284 1.284 0 0 0 .47 1.754z" class="cls-3" data-name="Path 151"/>
                <path id="Path_152" d="M1011.751 331.311a1.288 1.288 0 0 0 .641-.172l3.633-2.1a1.284 1.284 0 0 0-1.284-2.225l-3.634 2.1a1.285 1.285 0 0 0 .644 2.4z" class="cls-3" data-name="Path 152"/>
                <path id="Path_153" d="M1019.047 340.319h-4.2a1.285 1.285 0 1 0 0 2.569h4.2a1.285 1.285 0 1 0 0-2.569z" class="cls-3" data-name="Path 153"/>
                <path id="Path_154" d="M983.861 331.146a1.266 1.266 0 0 0 .573.136 1.285 1.285 0 0 0 1.15-.71 1.284 1.284 0 1 0-1.723.575z" class="cls-3" data-name="Path 154"/>
                <path id="Path_155" d="M1000.851 372.271a1.285 1.285 0 1 0 .676 1.687 1.284 1.284 0 0 0-.677-1.688z" class="cls-3" data-name="Path 155"/>
            </g>
        </g>
        <g id="Group_49" data-name="Group 49">
            <path id="Path_156" d="M775.445 602.577a2.313 2.313 0 0 0 2.313-2.312v-3.932a2.313 2.313 0 0 0-4.626 0v3.932a2.313 2.313 0 0 0 2.313 2.312z" class="cls-2" data-name="Path 156"/>
            <path id="Path_157" d="M775.445 617.609a2.314 2.314 0 0 0 2.313-2.313v-3.931a2.313 2.313 0 0 0-4.626 0v3.935a2.314 2.314 0 0 0 2.313 2.309z" class="cls-2" data-name="Path 157"/>
            <path id="Path_158" d="M780.995 608.127h3.932a2.313 2.313 0 0 0 0-4.625h-3.932a2.313 2.313 0 0 0 0 4.625z" class="cls-2" data-name="Path 158"/>
            <path id="Path_159" d="M765.963 608.127h3.937a2.313 2.313 0 0 0 0-4.625h-3.932a2.313 2.313 0 0 0 0 4.625z" class="cls-2" data-name="Path 159"/>
        </g>
        <g id="Group_50" data-name="Group 50">
            <path id="Path_160" d="M1336.11 698.714h-6.319a3.16 3.16 0 0 0-1.108 6.119l-6.481 6.481a16.863 16.863 0 0 0-18.942 0l-.485-.485.837-.837a3.159 3.159 0 0 0-4.467-4.468l-.838.838-1.528-1.529a3.16 3.16 0 0 0-1.108-6.119h-6.319a3.163 3.163 0 0 0-3.159 3.16v6.319a3.159 3.159 0 0 0 6.118 1.108l1.529 1.528-.838.838a3.159 3.159 0 1 0 4.468 4.467l.837-.837.486.485a16.717 16.717 0 0 0-2.14 4.417 1.053 1.053 0 0 0 2.009.631 14.653 14.653 0 0 1 2.346-4.519 1.054 1.054 0 0 0-.092-1.384l-1.864-1.864a1.053 1.053 0 0 0-1.489 0l-1.582 1.582a1.053 1.053 0 0 1-1.489-1.489l1.582-1.582a1.053 1.053 0 0 0 0-1.489l-3.871-3.871a1.053 1.053 0 0 0-1.8.744v1.235a1.053 1.053 0 0 1-2.106 0v-6.319a1.054 1.054 0 0 1 1.053-1.053h6.319a1.053 1.053 0 0 1 0 2.106h-1.235a1.053 1.053 0 0 0-.744 1.8l3.87 3.871a1.055 1.055 0 0 0 1.49 0l1.582-1.582a1.053 1.053 0 0 1 1.489 1.489l-1.582 1.582a1.051 1.051 0 0 0 0 1.489l1.863 1.864a1.054 1.054 0 0 0 1.384.092 14.746 14.746 0 0 1 17.885 0 1.054 1.054 0 0 0 1.384-.092l8.713-8.713a1.053 1.053 0 0 0-.745-1.8h-1.234a1.053 1.053 0 0 1 0-2.106h6.319a1.054 1.054 0 0 1 1.053 1.053v6.319a1.053 1.053 0 0 1-2.106 0v-1.235a1.053 1.053 0 0 0-1.8-.744l-8.713 8.713a1.052 1.052 0 0 0-.092 1.384 14.606 14.606 0 0 1 3.021 8.942 14.779 14.779 0 0 1-12.777 14.613 1.053 1.053 0 0 0-.914 1.044v2.246a1.053 1.053 0 0 0 1.053 1.053h2.106a1.053 1.053 0 1 1 0 2.106h-2.106a1.054 1.054 0 0 0-1.053 1.054v2.106a1.053 1.053 0 1 1-2.106 0v-2.106a1.054 1.054 0 0 0-1.053-1.054h-2.107a1.053 1.053 0 0 1 0-2.106h2.107a1.053 1.053 0 0 0 1.053-1.053v-2.246a1.053 1.053 0 0 0-.914-1.044 14.787 14.787 0 0 1-12.1-10.19 1.053 1.053 0 0 0-2.009.632 16.909 16.909 0 0 0 12.916 11.5v.3h-1.054a3.159 3.159 0 0 0 0 6.319h1.054v1.053a3.159 3.159 0 1 0 6.318 0v-1.053h1.053a3.159 3.159 0 1 0 0-6.319h-1.053v-.3a16.854 16.854 0 0 0 10.779-26.025l6.482-6.482a3.159 3.159 0 0 0 6.118-1.107v-6.319a3.163 3.163 0 0 0-3.159-3.16z" class="cls-1" data-name="Path 160"/>
            <path id="Path_161" d="M1312.731 737.89a12.637 12.637 0 1 0-12.638-12.637 12.651 12.651 0 0 0 12.638 12.637zm-7.447-20.084a10.532 10.532 0 1 1-3.084 7.447 10.463 10.463 0 0 1 3.084-7.447z" class="cls-1" data-name="Path 161"/>
            <path id="Path_162" d="M1297.987 725.254a1.053 1.053 0 1 0-1.053 1.054 1.052 1.052 0 0 0 1.053-1.055z" class="cls-1" data-name="Path 162"/>
        </g>
        <g id="Path_163" fill="none" stroke="none" stroke-miterlimit="10" data-name="Path 163">
            <path d="M985.739 738.553a20.622 20.622 0 0 1-3.688-.058 2.934 2.934 0 0 1-1.8-1.283c-4.516-8.191-8.959-16.422-13.42-24.643a3.367 3.367 0 0 0-.32-.555c-.471-.568-.535-1.94-1.784-1.083-.946.648-1.958 1.24-1.109 2.815 3.982 7.388 7.867 14.828 11.78 22.253.282.536-4.777.735-6.27-2.379-2.608-5.438-5.711-10.639-8.615-15.935-.271-.493-.6-.953-.907-1.435-2.661 2-2.82 2.787-1.282 5.367q2.712 4.547 5.38 9.118c.235.4-.719 1.343-1.086 1.018-3.444-3.048-6.895-6.1-9.171-10.2a4.582 4.582 0 0 1 .214-5.009 36.507 36.507 0 0 1 14.285-13.035c2.271-1.146 2.275-1.133 1.093-3.277-.671-1.217-1.347-2.432-1.995-3.661a1.849 1.849 0 0 1 .827-2.806c3.579-2.091 3.564-2.118 5.66 1.384.8 1.331 1.646 2.633 2.367 4a1.92 1.92 0 0 0 2.212 1.106c14.125-1.544 25.123 3.879 33.408 15.169 2.356 3.211 2.236 4.554-.053 7.788A35.767 35.767 0 0 1 997.52 735.2c-1.12.531-1.577 1.087-.862 2.335.874 1.528 1.548 3.17 2.339 4.747.449.892.465 1.51-.578 2.071-5.149 2.768-3.987 2.682-6.39-1.7q-9.48-17.3-18.787-34.689c-.64-1.19-1.206-1.7-2.594-.947-1.475.8-.9 1.628-.373 2.607q7.344 13.625 14.666 27.26c.244.45.445.926.798 1.669zm8.467-32.059c.355.588.446.78.573.943 4.755 6.064 5.077 14.894-1.448 20.986-1.495 1.4-.072 2.288.388 3.326.479 1.078 1.313.6 2.04.264a32.154 32.154 0 0 0 13.059-11.493 2.1 2.1 0 0 0-.083-1.952 79.925 79.925 0 0 0-6.113-6.95 24.109 24.109 0 0 0-8.416-5.124zm-.66 9.932a17.69 17.69 0 0 0-2.128-5.569 9.326 9.326 0 0 0-7.79-4.082 2.637 2.637 0 0 0-2.009 1.348c-.381.991.518 1.605 1.484 1.873a7.16 7.16 0 0 0 .778.177c3.875.61 5.749 2.52 6.282 6.507.161 1.2.612 2.2 1.922 2.057 1.205-.129 1.536-1.178 1.461-2.311z"/>
            <path fill="#fcce00" d="M994.461 746.225c.664 0 1.71-.664 3.958-1.873 1.043-.561 1.027-1.179.578-2.071-.791-1.577-1.465-3.219-2.339-4.747-.715-1.248-.258-1.804.862-2.335 5.736-2.722 10.295-6.825 13.948-11.983 2.289-3.234 2.409-4.577.053-7.788-7.36-10.028-16.857-15.427-28.787-15.427-1.502 0-3.042.085-4.621.258-.15.016-.293.025-.428.025-.807 0-1.351-.31-1.784-1.131-.721-1.37-1.57-2.672-2.367-4.003-1.177-1.967-1.688-2.82-2.545-2.82-.668 0-1.546.52-3.115 1.436-1.232.72-1.453 1.618-.827 2.806.648 1.229 1.324 2.444 1.995 3.661 1.182 2.144 1.178 2.131-1.093 3.277-5.974 3.014-10.658 7.456-14.285 13.035-1.033 1.588-1.168 3.289-.214 5.009 2.276 4.102 5.727 7.151 9.171 10.199.052.046.117.067.188.067.427 0 1.1-.743.898-1.085-1.785-3.045-3.572-6.087-5.38-9.118-1.538-2.58-1.379-3.371 1.282-5.367.306.482.636.942.907 1.435 2.904 5.296 6.007 10.497 8.615 15.935 1.006 2.099 3.633 2.693 5.152 2.693.734 0 1.21-.14 1.118-.314-3.913-7.425-7.798-14.865-11.78-22.253-.849-1.575.163-2.167 1.109-2.815.284-.195.507-.275.687-.275.612 0 .733.92 1.097 1.358.134.162.218.367.32.555 4.461 8.221 8.904 16.452 13.42 24.643.327.595 1.129 1.151 1.797 1.283.439.087.89.112 1.368.112.697 0 1.454-.054 2.32-.054-.353-.743-.554-1.219-.798-1.672-4.884-9.089-9.77-18.177-14.666-27.26-.528-.979-1.102-1.806.373-2.607.447-.243.809-.354 1.115-.354.645 0 1.045.494 1.479 1.301 6.232 11.579 12.467 23.158 18.787 34.689 1.354 2.47 1.576 3.575 2.432 3.575m-.255-39.731c3.437 1.326 6.159 2.931 8.416 5.124 2.208 2.145 4.164 4.558 6.113 6.95.34.417.386 1.502.083 1.952-3.343 4.959-7.595 8.926-13.059 11.493-.39.183-.809.403-1.189.403-.33 0-.628-.166-.851-.667-.46-1.038-1.883-1.93-.388-3.326 6.525-6.092 6.203-14.922 1.448-20.986-.127-.163-.218-.355-.573-.943m-10.59.281h.012c3.234.038 5.955 1.46 7.79 4.082 1.122 1.604 2.275 5.502 2.128 5.569.075 1.133-.256 2.182-1.461 2.311-.083.009-.163.013-.24.013-1.126 0-1.531-.946-1.682-2.07-.533-3.987-2.407-5.897-6.282-6.507-.262-.042-.522-.106-.778-.177-.966-.268-1.865-.882-1.484-1.873.244-.632 1.304-1.348 1.998-1.348m10.844 41.224c-.598 0-1.462-.2-2.18-1.151-.326-.433-.583-.95-.939-1.666-.24-.481-.51-1.027-.868-1.68-1.07-1.95-2.139-3.907-3.206-5.866l.073.156 1.205 2.535h-2.807c-.425 0-.83.014-1.223.028-.378.013-.736.026-1.097.026-.664 0-1.208-.046-1.712-.146-1.2-.237-2.436-1.129-3.007-2.169-1.771-3.211-3.545-6.455-5.306-9.69l.95 1.805 2.626 4.991c.307.584.287 1.268-.053 1.831-.586.971-1.784 1.083-2.634 1.083-2.296 0-5.442-.969-6.751-3.7-.68-1.417-1.402-2.831-2.145-4.236.23.602.16 1.288-.204 1.926-.431.755-1.333 1.517-2.374 1.518-.506 0-.99-.182-1.364-.513l-.025-.022c-3.492-3.09-7.103-6.286-9.521-10.644-.631-1.139-.92-2.319-.858-3.507.059-1.142.441-2.262 1.136-3.33 1.92-2.952 4.122-5.583 6.548-7.817 2.521-2.323 5.356-4.286 8.425-5.835l.037-.018c.195-.099.4-.202.586-.299l-.28-.513-.004-.007-.292-.528c-.569-1.03-1.157-2.096-1.719-3.162-1.082-2.052-.52-3.983 1.501-5.164l.08-.047c1.801-1.053 2.793-1.632 3.93-1.632 1.425 0 2.246.987 2.516 1.312.47.565.923 1.323 1.55 2.371.228.38.466.767.696 1.141.58.946 1.181 1.924 1.72 2.947.05.095.088.15.11.178.023.003.057.005.104.005.068 0 .147-.005.236-.014 1.63-.178 3.25-.269 4.813-.269 6.165 0 11.87 1.403 16.955 4.169 4.935 2.684 9.397 6.716 13.262 11.983 1.09 1.485 2.094 3.115 2.059 4.968-.031 1.65-.86 3.15-2.094 4.894-1.943 2.743-4.122 5.172-6.477 7.219-2.472 2.148-5.217 3.945-8.158 5.341.553.984 1.025 1.993 1.482 2.971.277.595.54 1.156.82 1.714.274.544.617 1.38.42 2.317-.183.877-.77 1.587-1.744 2.111-.447.24-.851.462-1.208.657-1.734.95-2.605 1.428-3.59 1.428zm.077-18.277c.059.09.127.188.182.266.09.132.187.27.283.42h.003c4.882-2.294 8.888-5.805 12.24-10.73.001-.043 0-.093-.005-.136l-.004-.005c-1.85-2.27-3.763-4.619-5.85-6.647-.796-.772-1.666-1.475-2.632-2.122.943 2.305 1.395 4.765 1.302 7.218-.08 2.149-.574 4.227-1.465 6.178-.938 2.053-2.301 3.922-4.05 5.555l-.004.003zm-35.339-10.75c-.056.078-.073.123-.079.147-.006.049-.003.359.73 1.59 1.809 3.031 3.633 6.137 5.218 8.84-1.166-2.181-2.379-4.34-3.568-6.456-.758-1.348-1.539-2.738-2.3-4.121z"/>
        </g>
    </g>
</svg>
